<mxfile host="app.diagrams.net" modified="2024-01-15T16:23:32.876Z" agent="Mozilla/5.0 (Windows NT 10.0; Win64; x64) AppleWebKit/537.36 (KHTML, like Gecko) Chrome/120.0.0.0 Safari/537.36 Edg/120.0.0.0" version="22.1.18" etag="_oxQ0YUWrySOrKhuJVjr" type="github">
  <diagram name="Page-1" id="bXBZRwHN0_AkQAbjLoMC">
    <mxGraphModel>
      <root>
        <mxCell id="0" />
        <mxCell id="1" parent="0" />
      </root>
    </mxGraphModel>
  </diagram>
</mxfile>
